<?xml version="1.0" encoding="utf-8"?>
<!-- Generator: Adobe Illustrator 24.1.2, SVG Export Plug-In . SVG Version: 6.00 Build 0)  -->
<svg version="1.1" id="Layer_1" xmlns="http://www.w3.org/2000/svg" xmlns:xlink="http://www.w3.org/1999/xlink" x="0px" y="0px"
	 viewBox="0 0 241.75 36.19" style="enable-background:new 0 0 241.75 36.19;" xml:space="preserve">
<style type="text/css">
	.st0{fill:#FFFFFF;stroke:#000000;stroke-width:2;stroke-miterlimit:10;}
	.st1{fill:#FFFFFF;stroke:#0F0808;stroke-width:2;stroke-miterlimit:10;}
</style>
<g>
	<path class="st0" d="M27.65,24.05c-9.72,0-17.59-7.88-17.59-17.59c0-1.8,0.27-3.53,0.77-5.16C4.74,4.06,0.5,10.18,0.5,17.3
		c0,9.72,7.88,17.59,17.59,17.59c7.92,0,14.61-5.23,16.82-12.43C32.69,23.48,30.24,24.05,27.65,24.05z"/>
</g>
<g>
	<rect x="69.71" y="0.5" class="st1" width="9.73" height="35.19"/>
	<rect x="85.39" y="0.5" class="st1" width="9.73" height="35.19"/>
</g>
<g>
	<rect x="126.07" y="3.64" class="st1" width="13.68" height="7.79"/>
	<rect x="142.34" y="3.64" class="st1" width="13.68" height="7.79"/>
	<rect x="158.61" y="3.64" class="st1" width="13.68" height="7.79"/>
	<rect x="126.07" y="14.2" class="st1" width="13.68" height="7.79"/>
	<rect x="142.34" y="14.2" class="st1" width="13.68" height="7.79"/>
	<rect x="158.61" y="14.2" class="st1" width="13.68" height="7.79"/>
	<rect x="126.07" y="24.76" class="st1" width="13.68" height="7.79"/>
	<rect x="142.34" y="24.76" class="st1" width="13.68" height="7.79"/>
	<rect x="158.61" y="24.76" class="st1" width="13.68" height="7.79"/>
</g>
<g>
	<g>
		<path d="M204.5,23.76h-4.77l-1.13,3.45h-1.48l4.16-12.45h1.74l4.2,12.45h-1.55L204.5,23.76z M200.18,22.48h3.9l-1.83-5.85h-0.21
			L200.18,22.48z"/>
		<path d="M218.68,22.9h-5.96l-1.42,4.31h-1.85l5.2-15.56h2.18l5.25,15.56h-1.93L218.68,22.9z M213.29,21.3h4.88l-2.29-7.31h-0.27
			L213.29,21.3z"/>
		<path d="M237.22,21.46h-7.95l-1.89,5.75h-2.46l6.94-20.75h2.9l7,20.75h-2.58L237.22,21.46z M230.03,19.32h6.51l-3.05-9.75h-0.36
			L230.03,19.32z"/>
	</g>
</g>
</svg>
