<?xml version="1.0" encoding="utf-8"?>
<!-- Generator: Adobe Illustrator 24.1.2, SVG Export Plug-In . SVG Version: 6.00 Build 0)  -->
<svg version="1.1" id="Layer_1" xmlns="http://www.w3.org/2000/svg" xmlns:xlink="http://www.w3.org/1999/xlink" x="0px" y="0px"
	 viewBox="0 0 63.88 61.37" style="enable-background:new 0 0 63.88 61.37;" xml:space="preserve">
<style type="text/css">
	.st0{fill:#FFFFFF;stroke:#000000;stroke-width:3;stroke-miterlimit:10;}
	.st1{stroke:#000000;stroke-miterlimit:10;}
</style>
<g>
	<circle class="st0" cx="31.94" cy="30.68" r="13.81"/>
	<g>
		<path class="st1" d="M32.44,13.12V4.69h-1v8.43c0.17,0,0.33-0.03,0.5-0.03C32.11,13.09,32.27,13.11,32.44,13.12z"/>
		<polygon class="st1" points="23.43,6.12 23.43,6.12 26.03,14.13 26.03,14.13 		"/>
		<path class="st1" d="M17.06,9.36l-0.81,0.59l4.95,6.82c0.26-0.2,0.53-0.41,0.8-0.6L17.06,9.36z"/>
		<polygon class="st1" points="10.62,15.81 10.62,15.81 17.42,20.75 17.42,20.75 		"/>
		<path class="st1" d="M7.37,22.18l-0.31,0.95l8,2.6c0.09-0.32,0.21-0.63,0.32-0.95L7.37,22.18z"/>
		<path class="st1" d="M7.06,38.24l0.31,0.95l8.01-2.6c-0.11-0.31-0.22-0.63-0.32-0.95L7.06,38.24z"/>
		<polygon class="st1" points="17.42,40.61 10.62,45.56 10.62,45.56 17.42,40.61 		"/>
		<path class="st1" d="M16.26,51.42l0.81,0.59l4.94-6.81c-0.28-0.19-0.54-0.4-0.8-0.6L16.26,51.42z"/>
		<polygon class="st1" points="24.38,55.56 24.38,55.56 26.98,47.56 26.98,47.56 		"/>
		<path class="st1" d="M31.44,48.25v8.43h1v-8.43c-0.17,0-0.33,0.03-0.5,0.03C31.77,48.28,31.61,48.26,31.44,48.25z"/>
		<polygon class="st1" points="36.9,47.56 39.5,55.56 39.5,55.56 36.9,47.56 		"/>
		<path class="st1" d="M46.81,52.01l0.81-0.59l-4.95-6.82c-0.26,0.2-0.53,0.41-0.8,0.6L46.81,52.01z"/>
		<polygon class="st1" points="53.26,45.56 53.26,45.56 46.46,40.61 46.46,40.61 		"/>
		<path class="st1" d="M56.51,39.19l0.31-0.95l-8-2.6c-0.09,0.32-0.21,0.63-0.32,0.95L56.51,39.19z"/>
		<path class="st1" d="M56.81,23.13l-0.31-0.95l-8.01,2.6c0.11,0.31,0.22,0.63,0.32,0.95L56.81,23.13z"/>
		<polygon class="st1" points="46.46,20.75 53.26,15.81 53.26,15.81 46.46,20.75 		"/>
		<path class="st1" d="M47.62,9.95l-0.81-0.59l-4.94,6.81c0.28,0.19,0.54,0.4,0.8,0.6L47.62,9.95z"/>
		<polygon class="st1" points="39.5,5.81 39.5,5.81 36.9,13.81 36.9,13.81 		"/>
		<path class="st1" d="M26.98,13.81L22.7,0.63l-0.95,0.31l1.68,5.18l2.6,8.01C26.35,14.02,26.66,13.91,26.98,13.81z"/>
		<path class="st1" d="M18.02,19.95L6.8,11.8l-0.59,0.81l4.4,3.2l6.81,4.94C17.61,20.48,17.82,20.22,18.02,19.95z"/>
		<path class="st1" d="M14.37,30.18H5.94H0.5v1h5.44h8.43c0-0.17-0.03-0.33-0.03-0.5C14.35,30.52,14.37,30.35,14.37,30.18z"/>
		<path class="st1" d="M17.42,40.61l-6.81,4.94l-4.4,3.2l0.59,0.81l11.22-8.15C17.82,41.15,17.61,40.89,17.42,40.61z"/>
		<path class="st1" d="M26.03,47.24l-4.29,13.19l0.95,0.31l1.68-5.18l2.6-8C26.66,47.46,26.35,47.35,26.03,47.24z"/>
		<path class="st1" d="M36.9,47.56l2.6,8l1.68,5.18l0.95-0.31l-4.29-13.19C37.53,47.35,37.22,47.46,36.9,47.56z"/>
		<path class="st1" d="M45.86,41.42l11.22,8.15l0.59-0.81l-4.41-3.2l-6.81-4.94C46.27,40.89,46.06,41.15,45.86,41.42z"/>
		<path class="st1" d="M57.93,30.18h-8.43c0,0.17,0.03,0.33,0.03,0.5c0,0.17-0.02,0.33-0.03,0.5h8.43h5.44v-1H57.93z"/>
		<path class="st1" d="M46.46,20.75l6.81-4.94l4.41-3.2l-0.59-0.81l-11.22,8.15C46.06,20.22,46.27,20.48,46.46,20.75z"/>
		<path class="st1" d="M37.84,14.13l4.29-13.19l-0.95-0.31L39.5,5.81l-2.6,8C37.22,13.91,37.53,14.02,37.84,14.13z"/>
	</g>
</g>
</svg>
